<?xml version="1.0" encoding="UTF-8" standalone="no"?>
<svg
   xmlns:dc="http://purl.org/dc/elements/1.1/"
   xmlns:cc="http://creativecommons.org/ns#"
   xmlns:rdf="http://www.w3.org/1999/02/22-rdf-syntax-ns#"
   xmlns:svg="http://www.w3.org/2000/svg"
   xmlns="http://www.w3.org/2000/svg"
   id="svg6376"
   version="1.1"
   viewBox="0 0 168.45911 132.96455"
   height="502.54318"
   width="636.69586">
  <defs
     id="defs6370" />
  <metadata
     id="metadata6373">
    <rdf:RDF>
      <cc:Work
         rdf:about="">
        <dc:format>image/svg+xml</dc:format>
        <dc:type
           rdf:resource="http://purl.org/dc/dcmitype/StillImage" />
        <dc:title></dc:title>
      </cc:Work>
    </rdf:RDF>
  </metadata>
  <g
     transform="translate(0,-164.03545)"
     id="layer1">
    <path
       d="m 112.90963,274.53259 c -0.0164,-0.99472 1.64187,-1.86215 2.26536,-1.53848 0.62349,0.32367 0.46828,2.04709 0.66245,3.52917 0.19416,1.48209 -1.00341,2.7191 -1.85873,2.55289 -0.47988,-0.0932 -0.47424,-2.07792 -0.6226,-2.57633 -0.20074,-0.67439 -0.43706,-1.39526 -0.44648,-1.96725 z M 81.239098,232.78831 c 0.352531,0.10582 1.358731,-0.42388 2.12675,-0.45859 1.040511,-0.047 1.853171,0.29746 2.456212,-0.22649 0.485899,-0.42217 1.05827,-2.77348 1.77402,-5.00746 0.82821,-2.58499 2.106679,-5.05331 1.415148,-5.26877 -0.690427,-0.21511 -3.665228,4.54078 -5.197168,6.28386 -1.53194,1.74308 -3.4051,4.42827 -2.574962,4.67745 z m 12.236982,-9.56752 c 0.54887,0.17415 0.0973,11.44595 -0.11811,15.40253 -0.2154,3.95658 -1.305621,6.33713 -1.64523,8.60622 -0.3396,2.26909 0.0623,3.18256 -0.173781,3.44177 -0.0644,0.0707 -1.019421,-1.05401 -1.190151,-2.35808 -0.147659,-1.12792 0.198181,-2.88168 0.292463,-3.92577 0.203279,-2.25125 -0.136711,-4.07248 -0.377982,-5.38616 -0.24127,-1.31369 -0.95713,-1.37744 -1.606399,-2.26786 -0.649271,-0.89043 4.36952,-13.65532 4.81919,-13.51265 z m 3.992369,-0.61421 c 0.672582,0.39972 5.596391,8.67603 5.764141,12.63858 0.16775,3.96255 -1.56786,0.0357 -2.45684,1.25205 -0.88898,1.21636 -0.61722,2.77567 -0.30711,5.74051 0.17088,1.6337 0.8608,4.34966 1.10823,6.71177 0.20161,1.92463 0.0221,3.70167 -0.25778,3.75344 -0.34473,0.0638 -0.5594,-1.82814 -1.17583,-3.64744 -0.498301,-1.47064 -1.209321,-2.78741 -1.753489,-3.81759 -1.138592,-2.15548 -1.641491,-4.01111 -1.889882,-6.3311 -0.248391,-2.31998 -0.20629,-4.77204 0,-7.60677 0.20629,-2.83473 0.295981,-9.09318 0.96856,-8.69345 z M 72.706383,179.12483 c 1.344224,0.0295 -0.112551,1.56659 -1.034803,5.42415 -0.922253,3.85756 -0.522312,7.4361 -1.488282,7.46515 -0.493987,0.0148 -2.935073,-2.90376 -5.323369,-5.38723 -1.590627,-1.65401 -3.186091,-2.54393 -3.621262,-2.89594 -1.114549,-0.90156 0.829305,-1.97703 4.863785,-3.43028 4.034478,-1.45324 5.259708,-1.20535 6.603931,-1.17585 z m 39.601727,0.89064 c 1.08157,2.02456 1.35579,2.53743 2.16878,4.82428 0.81299,2.28686 1.44269,5.98647 2.11048,6.04993 0.83626,0.0795 1.12615,-1.57862 3.4464,-4.82092 1.57249,-2.19739 1.72294,-2.18271 3.16852,-3.43103 1.44559,-1.24832 -0.073,-2.55517 -4.6104,-3.4745 -4.53739,-0.91933 -7.36535,-1.17231 -6.28378,0.85224 z m 27.10305,15.70804 c 0.31252,-0.4103 1.31345,-0.49297 1.97242,-1.12058 0.65898,-0.62761 1.44342,-1.09047 1.8188,-0.92586 0.37538,0.16461 0.52865,0.99345 0.40279,3.08539 -0.12585,2.09193 -0.33574,2.94216 -0.83611,3.51249 -0.23612,0.26912 -1.37174,0.65822 -2.47918,1.2993 -1.23948,0.71752 -2.45631,1.67049 -2.59059,1.51931 -0.25426,-0.28627 1.78609,-1.95724 2.05525,-3.14193 0.26916,-1.18469 0.28425,-1.57037 0.29228,-2.4349 0.008,-0.86453 -0.94819,-1.38292 -0.63566,-1.79322 z m 1.50093,-5.62288 c 1.12754,1.02849 2.03794,2.2691 1.98438,2.83482 -0.0536,0.56572 -0.79681,0.63569 -1.37925,1.11624 -0.58245,0.48055 -1.95986,1.25148 -2.32322,1.2208 -0.3302,-0.0279 -0.37285,-0.65096 -0.88049,-1.10862 -0.50764,-0.45766 -1.01756,-0.23474 -1.25512,-1.31719 -0.23757,-1.08243 -1.24358,-4.39068 -0.96697,-4.75385 0.30975,-0.35187 3.69313,0.9793 4.82067,2.0078 z m -12.14248,-0.61422 c -2.19566,1.52957 -5.68586,5.69385 -5.29167,6.47285 0.39419,0.77899 5.82988,-2.0892 8.42471,-2.401 2.59483,-0.3118 3.80938,0.37784 4.09575,0.27488 0.41715,-0.14998 0.46595,-0.52014 0.42522,-1.08668 -0.0407,-0.56654 -1.20914,-3.62961 -0.98407,-4.60155 0.22506,-0.97194 0.96961,-0.64416 0.6061,-1.16259 -0.36351,-0.51843 -5.08038,0.97453 -7.27604,2.50409 z m -75.429877,1.79539 c -0.933127,-0.0118 -2.070029,3.87306 -1.819011,4.6184 0.251021,0.74533 7.554804,2.05605 7.370535,1.19299 -0.184269,-0.86307 -4.618394,-5.79958 -5.551524,-5.81139 z m -11.977119,2.26786 c 0.79007,0.31429 3.186779,-0.86751 3.165549,0.16536 -0.02122,1.03287 -0.751173,2.72039 -1.181174,4.29948 -0.430003,1.5791 -0.890701,3.42484 -1.700895,5.14993 -0.810196,1.72509 -1.340533,3.89705 -2.078868,4.18136 -0.305832,0.11776 -1.883513,0.39334 -3.525221,1.03875 -2.321679,0.91272 -4.889516,2.23436 -5.191856,2.03231 -0.516128,-0.34494 5.355448,-8.93489 6.732702,-11.92988 1.377254,-2.99499 0.883533,-5.21066 1.842635,-5.55152 0.959098,-0.34087 1.147058,0.29991 1.937128,0.61421 z m 11.587329,-14.15639 c 0.272812,0.52187 -0.2902,1.9668 -0.744138,2.46275 -0.45394,0.49595 -0.612941,-0.0998 -2.929316,2.3151 -2.316376,2.4149 -4.287255,7.68325 -4.71897,8.17194 -0.431713,0.48868 -2.517857,0.66566 -3.005918,0.54514 -0.488059,-0.12052 -1.385054,-0.35498 -0.755952,-2.76395 0.6291,-2.40898 4.608216,-7.07206 5.822355,-8.12976 1.214138,-1.05771 3.115672,-2.44905 3.881874,-2.7843 0.766199,-0.33525 2.177253,-0.3388 2.450065,0.18308 z m 6.131976,6.43674 c 3.325333,3.36761 6.435899,6.47554 8.913553,9.59897 2.538508,3.20015 2.992242,4.88046 3.203633,4.75888 0.417714,-0.24023 0.760873,-3.34004 0.532371,-4.20952 -0.228505,-0.86949 -10.488232,-10.82587 -13.690666,-13.38999 -2.61933,-2.09724 -4.197186,-3.12994 -4.416039,-2.94121 -0.165698,0.30684 -0.751335,2.32224 -0.347977,2.30187 0.403357,-0.0204 2.479794,0.51339 5.805125,3.881 z m -17.908297,20.57084 c 0.383945,0.51459 6.147208,-1.08703 6.543715,-1.37016 0.39651,-0.28314 2.414302,-3.92858 1.771764,-4.15774 -0.642538,-0.22917 -1.553814,0.71158 -3.212799,0.47247 -1.658987,-0.23912 -1.926381,-1.50345 -2.504093,-0.96857 -0.57771,0.53489 -2.982529,5.50941 -2.598587,6.024 z M 53.22161,184.91526 c 0.188954,1.15222 0.142666,3.49125 -0.188984,4.83101 -0.331648,1.33977 -1.092269,1.71481 -1.652416,3.60777 -0.6765,2.28616 -0.57636,5.08223 -1.395018,6.26686 -0.902642,1.30616 -2.662492,1.19371 -3.378163,1.15755 -0.715672,-0.0362 -1.912702,-0.5445 -2.267858,-1.29929 -0.355153,-0.75479 0.562404,-5.80249 1.724517,-8.62258 1.162114,-2.82009 3.509754,-6.46311 5.126303,-7.65402 1.596503,-1.02749 1.842664,0.56049 2.031619,1.7127 z m 17.096015,15.11821 c -0.0141,1.20129 -1.377286,5.3797 -2.228366,5.49163 -0.85108,0.11193 -14.071206,-14.92551 -14.236237,-15.33809 -0.165031,-0.41257 0.169791,-2.22001 0.08212,-4.06641 -0.07747,-1.63167 -0.62308,-3.02503 -0.263012,-3.20963 0.767528,-0.39349 3.092638,1.66475 5.313614,3.74062 2.220976,2.07588 11.345963,12.1806 11.331874,13.38188 z m 1.283083,1.21745 c 0.177803,0.35177 0.04082,2.31103 0.361281,4.46029 0.297992,1.99856 1.065046,4.19657 0.961636,4.51665 -0.214614,0.6643 -3.762629,-2.73756 -3.685268,-3.73252 0.07736,-0.99496 1.371714,-5.29459 1.787991,-5.80619 0.125407,-0.15413 0.390395,0.21815 0.57436,0.56177 z m -52.302454,18.94606 c -3.932503,2.36966 -7.639015,6.82012 -11.5282736,14.93006 -3.889261,8.10994 -8.10790302,24.20074 -7.74851402,34.39584 0.359389,10.19508 5.57136302,18.82898 12.09523862,20.22172 6.523875,1.39274 16.861266,0.21084 22.678572,-2.26786 5.817307,-2.4787 12.459309,-8.74413 11.433779,-10.96131 -1.025533,-2.21718 -3.034845,1.06915 -11.528275,-10.01637 -8.493428,-11.08552 -7.561923,-15.70896 -7.512274,-18.56808 0.04965,-2.85911 1.109802,-6.95321 4.11049,-9.68564 3.000687,-2.73242 8.52932,-2.33763 11.192795,-1.09044 2.663476,1.24718 2.706733,2.30397 4.393973,2.74033 1.687242,0.43635 0.739595,-3.88449 -1.979626,-6.94155 -2.719223,-3.05707 -1.63503,-5.90808 -3.685267,-8.032 -2.050238,-2.12391 -8.010594,-5.78355 -11.90625,-6.42559 -3.895656,-0.64204 -6.083865,-0.66877 -10.016368,1.70089 z m 13.418152,18.33184 c -3.93638,2.3227 -5.092194,8.78025 -3.590771,12.94569 1.501423,4.16544 5.709804,2.78799 12.567706,10.39434 6.857904,7.60636 3.644222,13.43348 5.811385,14.69383 2.167162,1.26035 7.844094,-5.90451 6.992559,-15.26079 -0.851535,-9.35628 -2.965551,-14.39287 -8.07924,-19.65476 -5.113689,-5.26189 -9.765255,-5.441 -13.701639,-3.11831 z m 98.840774,-63.49999 c -1.42668,0.0787 -13.69439,16.375 -14.59933,18.52083 -0.90494,2.14583 -0.24987,8.49917 0.89769,8.78795 0.61225,0.15406 3.8481,-5.66317 7.92554,-11.00398 3.56511,-4.66974 7.57932,-8.00242 7.85497,-9.12326 0.59091,-2.40275 -0.65219,-7.26027 -2.07887,-7.18154 z m 2.92932,-0.66146 c -1.28137,0.45322 -0.18899,4.7247 -0.18899,4.7247 -0.0305,0.76248 6.18186,8.13747 7.2288,8.55171 1.04694,0.41425 5.02469,0.24715 5.48065,-1.18117 0.45596,-1.42833 -2.30794,-5.23324 -4.58296,-7.08706 -2.27502,-1.85382 -7.15123,-5.28629 -7.9375,-5.00818 z m 8.83519,15.0718 c 0.76227,-0.96178 3.14068,-1.99792 4.72471,-1.51191 1.58403,0.48602 8.39117,10.0116 9.11867,18.04837 0.34658,3.82877 -1.82639,11.62156 -3.00114,11.56534 -1.29445,-0.0619 -0.71599,-5.65067 -1.01486,-7.4076 -2.31936,-13.63493 -10.58965,-19.73243 -9.82738,-20.6942 z m 2.73707,11.11356 c -0.66556,0.74069 -1.3678,3.38482 -1.52843,5.28031 -0.0657,0.77499 0.84125,1.46786 0.63851,3.13707 -0.28262,2.32693 -2.92366,4.22836 -1.42748,4.18309 1.49617,-0.0453 5.38627,1.60468 6.52586,2.46008 1.1396,0.8554 1.49972,-5.10947 1.29582,-7.71908 -0.39422,-5.04537 -1.49418,-7.09115 -2.95979,-7.66216 -1.4656,-0.57102 -2.02938,-0.25258 -2.54449,0.32069 z m -25.78295,11.86834 c -0.16698,0.78727 -0.0853,2.43243 0.48442,2.99008 0.68893,0.67429 5.35449,-1.7677 11.38673,-4.59066 7.88537,-3.69019 9.77788,-2.89731 10.86346,-3.82833 1.02778,-0.88145 2.27083,-6.29223 1.70384,-6.68174 -0.72808,-0.50016 -7.07748,3.52199 -14.21533,7.31336 -9.10564,4.8366 -9.98109,3.6562 -10.22312,4.79729 z m -5.02802,6.03027 c -0.61806,-0.68488 -0.213,-3.24417 0.91875,-4.02575 1.13175,-0.78157 2.17764,-1.80173 2.84498,-2.12886 0.66734,-0.32713 0.89146,3.50067 0.66292,3.89953 -0.4385,0.76528 -3.80858,2.93996 -4.42665,2.25508 z m 6.34027,30.28285 c -5.38178,-0.0658 9.46259,-12.39287 13.93787,-15.875 4.47528,-3.48213 8.22531,-4.95446 12.37872,-5.76414 10.69448,-1.76909 17.79968,2.84583 19.74926,8.97694 2.66108,8.95718 -1.42551,31.06379 -10.01637,42.61681 -8.59086,11.55302 -27.18494,16.87666 -38.97937,18.07883 -11.79443,1.20217 -29.96794,-2.49081 -29.180489,-5.78036 0.787447,-3.28954 6.299978,1.44425 13.318919,-2.25638 7.01894,-3.70063 19.65058,-14.97938 25.71188,-22.94388 6.0613,-7.9645 6.37279,-13.23914 5.69453,-15.25744 -0.67825,-2.01829 -1.7514,-2.90869 -4.25223,-2.88206 -2.50083,0.0266 -8.36272,1.08668 -8.36272,1.08668 z m -4.86644,3.68527 c -8.44161,3.35961 -21.934421,17.54677 -25.985869,22.3006 -4.051441,4.75383 -4.762231,7.71296 -4.872583,10.10299 -0.11035,2.39004 1.25522,6.32732 2.985482,5.43595 1.711229,-0.88157 0.128489,-3.84913 3.49351,-6.37302 3.365008,-2.5239 28.57661,-14.01312 34.30133,-19.84375 5.72472,-5.83062 7.25019,-11.55963 5.71689,-13.79614 -1.5333,-2.23651 -7.19715,-1.18624 -15.63876,2.17337 z m -9.99304,-27.3699 c -1.1486,2.04271 1.11096,6.53005 2.12145,7.16617 1.01048,0.63612 6.61851,0.0881 6.66504,-1.08579 0.0465,-1.17387 -1.24511,-0.30995 -1.80408,-4.46841 -0.55897,-4.15846 1.80306,-6.86653 1.28624,-7.26639 -0.51682,-0.39986 -7.12004,3.61172 -8.26865,5.65442 z m 9.63841,-5.54584 c -1.7094,3.04605 -2.06237,5.16256 -1.70385,7.16616 0.35852,2.0036 0.79396,2.99423 2.58918,4.04245 1.79522,1.04822 12.15855,0.25683 11.79326,-1.08578 -0.36528,-1.3426 -4.74974,-2.42867 -5.69617,-5.67947 -0.94644,-3.2508 0.39281,-5.19919 2.36816,-6.69914 1.97535,-1.49996 7.53861,-3.44336 10.94144,-4.28528 3.40283,-0.84192 5.95815,-0.99124 3.01529,-1.48284 -2.94286,-0.4916 -21.59791,4.97785 -23.30731,8.0239 z m 9.22065,-1.28722 c -1.67889,1.51128 -1.68437,3.40209 -1.41972,4.97888 0.26465,1.57679 3.93291,4.16971 5.57925,4.77744 2.10036,0.77533 1.98715,6.11156 2.98985,5.27124 4.02605,-3.3741 8.91191,-6.44943 14.91426,-7.13639 8.63751,-0.98856 9.96346,0.0302 12.55186,0.73078 2.5884,0.70056 -2.56979,-4.78953 -5.5665,-7.45166 -2.99671,-2.66212 -8.55198,-5.62954 -13.76438,-6.01356 -5.2124,-0.38403 -13.60573,3.332 -15.28462,4.84327 z m -15.56349,36.83138 c -0.36301,0.0184 -5.89134,-22.1861 -8.29466,-26.6137 -2.403322,-4.4276 -2.95564,-5.75928 -2.934071,-9.39405 0.02159,-3.63477 0.28244,-6.10711 0.857171,-8.18184 0.57473,-2.07474 1.12728,-3.66079 2.69922,-4.02804 1.57194,-0.36725 4.50138,-0.55251 4.99393,2.74704 0.49256,3.29955 -2.28445,3.96691 -2.60096,9.9964 -0.31651,6.02949 0.72702,7.19995 3.13584,14.64287 2.42444,7.4912 5.14949,18.90493 4.62459,19.32819 -1.04983,0.84656 -2.0959,1.48363 -2.48106,1.50313 z M 89.80011,210.02503 c -0.30589,-2.28483 -1.888321,-2.84323 -3.294632,-3.06787 -1.406318,-0.22463 -3.310008,-0.11103 -4.494299,1.76139 -1.18432,1.87241 1.92601,6.86428 1.50818,10.26174 -0.42777,3.47823 -9.389229,12.57471 -17.778814,36.43201 -8.389573,23.8573 -12.218255,39.63601 -11.433453,39.83421 1.302049,0.32884 6.581089,-21.81271 14.294945,-40.36325 7.713851,-18.55056 13.818272,-26.72441 15.105052,-28.15613 1.28678,-1.43172 4.386241,-4.57581 4.46241,-8.16287 0.0762,-3.58706 1.93649,-6.2544 1.630611,-8.53923 z m 1.517891,-2.03718 c 0.46405,-0.92925 1.319508,-1.83838 1.859417,-1.80001 0.539912,0.0384 1.430232,0.90968 1.536801,2.07134 0.106571,1.16166 -0.4683,4.43945 -0.676281,6.28165 -0.207978,1.8422 -1.920819,9.22339 -4.575309,16.81354 -2.65448,7.59014 -9.06734,23.12259 -9.381408,22.94198 -0.413941,-0.23802 4.377719,-13.9684 6.832568,-22.04973 2.454852,-8.08133 4.201231,-13.2851 4.368429,-16.76236 0.167191,-3.47727 -0.33551,-3.17945 -0.44341,-4.08467 -0.107899,-0.90521 0.01511,-2.48248 0.479193,-3.41174 z m 7.893507,1.38629 c 0.0656,-1.03373 0.0425,-1.90451 -0.826288,-2.21192 -0.86877,-0.30741 -1.66084,0.33862 -2.175431,1.38552 -0.514591,1.04691 -1.196049,3.55779 -1.518261,8.89622 -0.322199,5.33844 -0.455258,11.38114 -0.520838,20.85528 -0.0656,9.47414 1.73935,18.29776 2.097228,18.24128 0.471652,-0.0744 -0.985059,-13.43449 -0.574709,-22.30052 0.41035,-8.86603 0.608452,-11.53167 0.95159,-14.88303 0.34314,-3.35137 0.903361,-6.21907 1.327549,-7.02598 0.424212,-0.80692 1.173562,-1.92312 1.23916,-2.95685 z m -3.729349,-31.77438 c -0.739058,-0.021 -1.214409,0.13593 -1.39423,0.33745 -0.316579,0.3548 0.772951,6.65228 1.346171,13.26172 0.573209,6.60944 0.38722,13.59324 0.14573,13.61829 -0.241491,0.025 -0.212821,-6.83197 -0.860931,-13.52527 -0.648099,-6.6933 -1.7605,-12.98692 -2.156978,-13.25191 -0.792941,-0.52997 -8.129442,2.98863 -11.481983,5.73299 -3.352543,2.74436 -6.784758,8.3109 -8.104415,11.62719 -1.31966,3.31629 -0.343368,12.45597 1.639176,18.22732 1.248754,3.63523 4.563311,7.95914 6.25285,7.57576 1.689539,-0.38338 1.905651,-2.61139 1.562179,-4.36356 -0.354618,-1.80904 -1.502388,-3.1853 -1.76734,-5.00796 -0.264948,-1.82266 -0.194318,-3.42801 1.213361,-4.9351 1.407689,-1.50709 7.330451,-0.7817 9.56945,-1.7415 2.239031,-0.9598 0.451199,-4.13422 -0.48215,-6.30659 -1.22759,-2.85722 -3.67143,-4.59009 -2.953819,-4.87618 0.717619,-0.2861 3.00002,2.44176 3.850928,5.03225 0.850911,2.59048 3.240212,8.89858 3.857131,8.81496 0.61691,-0.0836 1.89911,-7.32069 2.521291,-9.76012 0.622178,-2.43944 2.11408,-5.96255 2.76366,-5.83479 0.64958,0.12776 -1.31236,3.26705 -1.748221,4.74803 -0.435859,1.48098 -1.94914,7.09812 -0.659911,8.1995 1.291461,1.1033 5.208452,-0.11903 7.031622,0.65319 1.57396,0.66667 3.07715,1.90342 3.00705,4.30568 -0.0483,1.65433 -1.22175,3.05599 -1.31465,5.91075 -0.0929,2.85476 0.34615,4.45362 0.70021,4.90874 0.71232,0.75446 4.74553,-1.49257 6.21306,-4.48861 1.46753,-2.99604 2.0023,-8.39647 2.0314,-11.24479 0.0291,-2.84832 -0.87887,-8.51652 -2.47427,-11.2913 -1.59539,-2.77479 -4.35883,-7.54241 -9.94099,-12.18221 -3.83774,-3.18985 -6.73944,-4.09763 -8.365381,-4.14393 z m 8.435661,17.6506 c 1.06982,1.7e-4 1.93695,0.86754 1.93683,1.93735 -1.6e-4,1.06962 -0.86721,1.93667 -1.93683,1.93684 -1.06982,1.2e-4 -1.93719,-0.86702 -1.93735,-1.93684 -1.2e-4,-1.07002 0.86733,-1.93747 1.93735,-1.93735 z m -18.28467,0.89762 c 1.07002,-1.2e-4 1.93747,0.86733 1.93735,1.93735 -1.61e-4,1.06982 -0.867531,1.93696 -1.93735,1.93683 -1.069822,1.3e-4 -1.937192,-0.86701 -1.937351,-1.93683 -1.19e-4,-1.07002 0.867331,-1.93747 1.937351,-1.93735 z m -13.195562,-2.3123 c -0.666356,-0.30787 -0.46577,-3.65596 0.482063,-8.29357 0.94783,-4.63761 3.437284,-12.75896 11.239058,-18.87826 5.223021,-3.73737 12.763071,-3.08241 16.347461,-0.56696 4.03333,2.89936 8.01004,8.2903 11.62278,16.53646 2.89827,6.61536 3.75609,12.57036 3.11743,11.93891 -0.63866,-0.63145 -4.08094,-8.06273 -11.40761,-13.92807 -6.277301,-5.02526 -9.876852,-3.55716 -10.363071,-4.11018 -0.48622,-0.55301 -1.330701,-12.14823 -1.60392,-12.12108 -0.273209,0.0272 0.93771,11.47386 0.54941,12.23577 -0.3883,0.76191 -5.62016,1.40412 -11.409011,6.08767 -5.788845,4.68355 -7.908232,11.40718 -8.57459,11.09931 z m -52.56838,23.948 c -0.953253,-1.26771 0.402758,-3.43604 2.672697,-4.40995 2.269938,-0.9739 3.288644,-0.61719 7.683997,-2.00452 4.395354,-1.38733 8.680529,-3.38832 12.206621,-4.25674 3.526089,-0.86843 7.38714,-2.10349 9.174943,-0.22003 1.787803,1.88347 3.714083,3.57186 3.407685,5.21176 -0.306398,1.63989 -2.258819,0.79711 -3.073598,2.20497 -0.814779,1.40786 -0.101746,4.0426 -0.601359,5.94675 -0.499612,1.90416 -1.128442,3.94209 -2.338607,5.34539 -1.210167,1.4033 -3.219915,3.43793 -4.476765,2.80633 -1.256851,-0.63159 -0.545606,-4.96674 -6.371969,-7.83581 -5.826363,-2.86908 -10.878407,-4.01143 -14.07415,-3.92405 -3.195743,0.0874 -3.256243,2.4036 -4.209495,1.1359 z m 46.814666,8.3744 c -0.443838,0.52353 -3.443613,-1.23621 -4.451736,-1.54677 -2.318269,-0.71416 -6.691133,-0.0849 -7.216987,-0.61361 -1.250402,-1.25727 -1.002286,-4.40253 -1.319644,-5.01131 -0.317359,-0.60878 -1.189257,-0.76201 -1.302938,-1.40317 -0.11368,-0.64114 -0.334814,-2.309 0.501132,-3.15712 0.835946,-0.84812 2.921172,-0.19476 2.939963,-2.6894 0.01879,-2.49463 -1.797733,-3.35325 -2.956669,-4.84426 -1.158933,-1.491 8.689427,4.1018 10.49033,6.68174 1.800902,2.57994 3.5487,3.05195 4.067754,3.49408 0.519054,0.44212 -0.307364,8.56629 -0.751205,9.08982 z m 1.908757,-8.54648 c 0.699037,-0.97723 5.815804,-0.29988 7.536813,1.4082 1.721008,1.70807 2.715982,2.83327 2.605876,5.24516 -0.110109,2.41189 -1.319594,4.56991 -2.761454,6.09561 -1.321935,1.3988 -1.759281,-0.31413 -4.656418,-2.01384 -1.775209,-1.0415 -2.894796,-0.48409 -3.428775,-1.36182 -0.44713,-0.73499 0.0049,-8.39609 0.703958,-9.37331 z"
       style="display:inline;fill:#00008b;fill-opacity:1;stroke:none;stroke-width:0.26458332px;stroke-linecap:butt;stroke-linejoin:miter;stroke-opacity:1"
       id="path6367" />
  </g>
</svg>
