<svg xmlns="http://www.w3.org/2000/svg" width="235.09793" height="55.1264" viewBox="0 0 62.202993 14.585527">
<g transform="translate(1.2098473e-8,-282.41447)"><path class="stepanov" style="fill:#ffffff" d="m 57.154688,282.42688 c -9.73315,0.009 -19.467427,0.01 -29.20117,0.0117 -1.180476,-10e-6 -2.272998,0.62994 -2.863282,1.65235 -0.59026,1.02235 -0.59026,2.28623 0,3.30859 0.590269,1.02238 1.684856,1.65232 2.869139,1.65234 1.840207,5e-5 3.312502,1.47421 3.312502,3.3086 0,1.83438 -1.473695,3.30661 -3.312502,3.30664 -7.146875,-3e-5 -14.460735,-1e-5 -22.9316392,0 -2.053586,2e-5 -3.705108,-1.65153 -3.705078,-3.70508 v -8.86328 a 0.66152448,0.66152448 0 1 0 -1.32226597582,2e-5 v 8.86328 c -4e-5,2.76853 2.25878797582,5.02738 5.02734397582,5.02734 8.4709022,-10e-6 15.7847672,-3e-5 22.9316392,0 2.552521,-3e-5 4.634768,-2.07957 4.634768,-4.6289 0,-2.54934 -2.081247,-4.63079 -4.634768,-4.63086 -0.716274,-2e-5 -1.369599,-0.37729 -1.724608,-0.99219 -0.355002,-0.61488 -0.355002,-1.36949 0,-1.98438 0.354995,-0.61487 1.008664,-0.99219 1.718751,-0.99218 9.733473,-0.002 19.467113,-7.7e-4 29.20117,-0.01 2.059012,4e-5 3.708985,1.64952 3.708985,3.70313 3e-6,2.0536 -1.649844,3.70507 -3.705077,3.70507 a 0.66152448,0.66152448 0 0 0 -0.474609,1.1211 l 4.363281,4.49805 a 0.66152448,0.66152448 0 1 0 0.949219,-0.91993 l -3.533204,-3.64257 c 2.124366,-0.58781 3.722659,-2.45557 3.722656,-4.76172 0,-2.76856 -2.258687,-5.0273 -5.031251,-5.02735 z m -42.480468,0.002 a 0.66152448,0.66152448 0 0 0 -0.65039,0.66992 v 6.17969 c 2.11e-4,2.80143 2.258783,5.0664 5.027343,5.0664 2.76856,0 5.025394,-2.25878 5.025391,-5.02734 -4e-6,-2.76856 -2.256836,-5.02735 -5.025391,-5.02735 -0.747411,0 -1.46217,0.16466 -2.101562,0.45899 a 0.66152988,0.66152988 0 1 0 0.554687,1.20117 c 0.470386,-0.21653 0.992477,-0.33789 1.546875,-0.33789 2.053599,0 3.703123,1.65148 3.703125,3.70508 3e-6,2.0536 -1.649523,3.70312 -3.703125,3.70312 -2.053602,0 -3.704919,-1.6444 -3.705078,-3.74218 v -6.17969 a 0.66152448,0.66152448 0 0 0 -0.671875,-0.66992 z m -7.0000002,1.86132 c -2.768555,0 -5.027341,2.25879 -5.027344,5.02735 -3e-6,2.76856 2.258783,5.02734 5.027344,5.02734 2.7685602,0 5.0253942,-2.25878 5.0253912,-5.02734 -4e-6,-2.76856 -2.256836,-5.02735 -5.0253912,-5.02735 z m 26.4570332,1.0586 a 0.66152448,0.66152448 0 0 0 -0.660157,0.66015 v 4.36719 c -3e-6,2.76856 2.25683,5.02539 5.02539,5.02539 h 2.91211 a 0.66152448,0.66152448 0 1 0 0,-1.32226 h -2.91211 c -2.053603,0 -3.703127,-1.64953 -3.703124,-3.70313 v -3.70508 h 4.89453 a 0.66152448,0.66152448 0 1 0 0,-1.32226 z m 13.230468,0 c -2.768555,0 -5.027343,2.25878 -5.027345,5.02734 -3e-6,2.76856 2.258785,5.02539 5.027345,5.02539 h 2.511719 a 0.66152448,0.66152448 0 1 0 0,-1.32226 h -2.511719 c -2.053603,0 -3.705082,-1.64953 -3.705079,-3.70313 2e-6,-2.0536 1.651478,-3.70508 3.705079,-3.70508 1.818378,0 3.249996,1.32083 3.570311,3.04297 -1.8244,0 -4.718177,-1.3e-4 -5.291015,0 a 0.66152448,0.66152448 0 1 0 0,1.32227 c 0.657508,-1.5e-4 4.469061,4e-5 6.085937,0 a 0.66152448,0.66152448 0 0 0 0.660157,-0.66016 c -3e-6,-2.76856 -2.256838,-5.02734 -5.02539,-5.02734 z m -39.6875012,0.26367 c 2.053599,0 3.7031232,1.65148 3.7031252,3.70508 3e-6,2.0536 -1.6495232,3.70312 -3.7031252,3.70312 -2.053603,0 -3.70508,-1.64952 -3.705078,-3.70312 2e-6,-2.0536 1.651478,-3.70508 3.705078,-3.70508 z m 46.8203132,0.11328 a 0.66152448,0.66152448 0 0 0 -0.652343,0.67188 v 9.92187 a 0.6621095,0.6621095 0 1 0 1.324218,0 v -9.92187 a 0.66152448,0.66152448 0 0 0 -0.671875,-0.67188 z" /></g>
</svg>
